<?xml version="1.0" encoding="UTF-8" standalone="no"?>
<svg width="1476" height="756" viewBox="0 0 1476 756" xmlns="http://www.w3.org/2000/svg">
  <style>
    rect.cell { stroke: #666; stroke-width: 1; width: 36px; height: 36px; }
    rect.rock { fill: #444; }
    rect.room { fill: #eee; }
    rect.corridor { fill: #999; }
    text { paint-order: stroke fill markers; fill: #000; stroke: #eee; stroke-width: 3px; font-size: 21px; font-family: Verdana, Tahoma, Sans-Serif; text-anchor: left; dominant-baseline: middle; }
  </style>
  <rect class="cell rock" x="0" y="0" />
  <rect class="cell rock" x="0" y="36" />
  <rect class="cell rock" x="0" y="72" />
  <rect class="cell rock" x="0" y="108" />
  <rect class="cell rock" x="0" y="144" />
  <rect class="cell rock" x="0" y="180" />
  <rect class="cell rock" x="0" y="216" />
  <rect class="cell rock" x="0" y="252" />
  <rect class="cell rock" x="0" y="288" />
  <rect class="cell rock" x="0" y="324" />
  <rect class="cell rock" x="0" y="360" />
  <rect class="cell rock" x="0" y="396" />
  <rect class="cell rock" x="0" y="432" />
  <rect class="cell rock" x="0" y="468" />
  <rect class="cell rock" x="0" y="504" />
  <rect class="cell rock" x="0" y="540" />
  <rect class="cell rock" x="0" y="576" />
  <rect class="cell rock" x="0" y="612" />
  <rect class="cell rock" x="0" y="648" />
  <rect class="cell rock" x="0" y="684" />
  <rect class="cell rock" x="0" y="720" />
  <rect class="cell rock" x="36" y="0" />
  <rect class="cell rock" x="36" y="36" />
  <rect class="cell rock" x="36" y="72" />
  <rect class="cell rock" x="36" y="108" />
  <rect class="cell rock" x="36" y="144" />
  <rect class="cell room" x="36" y="180" />
  <rect class="cell room" x="36" y="216" />
  <rect class="cell room" x="36" y="252" />
  <rect class="cell rock" x="36" y="288" />
  <rect class="cell rock" x="36" y="324" />
  <rect class="cell rock" x="36" y="360" />
  <rect class="cell rock" x="36" y="396" />
  <rect class="cell rock" x="36" y="432" />
  <rect class="cell rock" x="36" y="468" />
  <rect class="cell rock" x="36" y="504" />
  <rect class="cell rock" x="36" y="540" />
  <rect class="cell rock" x="36" y="576" />
  <rect class="cell rock" x="36" y="612" />
  <rect class="cell rock" x="36" y="648" />
  <rect class="cell rock" x="36" y="684" />
  <rect class="cell rock" x="36" y="720" />
  <rect class="cell rock" x="72" y="0" />
  <rect class="cell rock" x="72" y="36" />
  <rect class="cell rock" x="72" y="72" />
  <rect class="cell rock" x="72" y="108" />
  <rect class="cell rock" x="72" y="144" />
  <rect class="cell room" x="72" y="180" />
  <rect class="cell room" x="72" y="216" />
  <rect class="cell room" x="72" y="252" />
  <rect class="cell rock" x="72" y="288" />
  <rect class="cell rock" x="72" y="324" />
  <rect class="cell rock" x="72" y="360" />
  <rect class="cell rock" x="72" y="396" />
  <rect class="cell rock" x="72" y="432" />
  <rect class="cell rock" x="72" y="468" />
  <rect class="cell rock" x="72" y="504" />
  <rect class="cell rock" x="72" y="540" />
  <rect class="cell rock" x="72" y="576" />
  <rect class="cell rock" x="72" y="612" />
  <rect class="cell rock" x="72" y="648" />
  <rect class="cell rock" x="72" y="684" />
  <rect class="cell rock" x="72" y="720" />
  <rect class="cell rock" x="108" y="0" />
  <rect class="cell rock" x="108" y="36" />
  <rect class="cell rock" x="108" y="72" />
  <rect class="cell rock" x="108" y="108" />
  <rect class="cell rock" x="108" y="144" />
  <rect class="cell room" x="108" y="180" />
  <rect class="cell room" x="108" y="216" />
  <rect class="cell room" x="108" y="252" />
  <rect class="cell corridor" x="108" y="288" />
  <rect class="cell corridor" x="108" y="324" />
  <rect class="cell corridor" x="108" y="360" />
  <rect class="cell corridor" x="108" y="396" />
  <rect class="cell corridor" x="108" y="432" />
  <rect class="cell corridor" x="108" y="468" />
  <rect class="cell corridor" x="108" y="504" />
  <rect class="cell corridor" x="108" y="540" />
  <rect class="cell corridor" x="108" y="576" />
  <rect class="cell corridor" x="108" y="612" />
  <rect class="cell corridor" x="108" y="648" />
  <rect class="cell corridor" x="108" y="684" />
  <rect class="cell rock" x="108" y="720" />
  <rect class="cell rock" x="144" y="0" />
  <rect class="cell rock" x="144" y="36" />
  <rect class="cell rock" x="144" y="72" />
  <rect class="cell rock" x="144" y="108" />
  <rect class="cell rock" x="144" y="144" />
  <rect class="cell room" x="144" y="180" />
  <rect class="cell room" x="144" y="216" />
  <rect class="cell room" x="144" y="252" />
  <rect class="cell rock" x="144" y="288" />
  <rect class="cell rock" x="144" y="324" />
  <rect class="cell rock" x="144" y="360" />
  <rect class="cell rock" x="144" y="396" />
  <rect class="cell rock" x="144" y="432" />
  <rect class="cell corridor" x="144" y="468" />
  <rect class="cell rock" x="144" y="504" />
  <rect class="cell rock" x="144" y="540" />
  <rect class="cell rock" x="144" y="576" />
  <rect class="cell rock" x="144" y="612" />
  <rect class="cell rock" x="144" y="648" />
  <rect class="cell corridor" x="144" y="684" />
  <rect class="cell rock" x="144" y="720" />
  <rect class="cell rock" x="180" y="0" />
  <rect class="cell rock" x="180" y="36" />
  <rect class="cell rock" x="180" y="72" />
  <rect class="cell rock" x="180" y="108" />
  <rect class="cell rock" x="180" y="144" />
  <rect class="cell room" x="180" y="180" />
  <rect class="cell room" x="180" y="216" />
  <rect class="cell room" x="180" y="252" />
  <rect class="cell rock" x="180" y="288" />
  <rect class="cell room" x="180" y="324" />
  <rect class="cell room" x="180" y="360" />
  <rect class="cell room" x="180" y="396" />
  <rect class="cell corridor" x="180" y="432" />
  <rect class="cell corridor" x="180" y="468" />
  <rect class="cell rock" x="180" y="504" />
  <rect class="cell rock" x="180" y="540" />
  <rect class="cell rock" x="180" y="576" />
  <rect class="cell rock" x="180" y="612" />
  <rect class="cell rock" x="180" y="648" />
  <rect class="cell corridor" x="180" y="684" />
  <rect class="cell rock" x="180" y="720" />
  <rect class="cell rock" x="216" y="0" />
  <rect class="cell rock" x="216" y="36" />
  <rect class="cell rock" x="216" y="72" />
  <rect class="cell rock" x="216" y="108" />
  <rect class="cell rock" x="216" y="144" />
  <rect class="cell rock" x="216" y="180" />
  <rect class="cell rock" x="216" y="216" />
  <rect class="cell rock" x="216" y="252" />
  <rect class="cell rock" x="216" y="288" />
  <rect class="cell room" x="216" y="324" />
  <rect class="cell room" x="216" y="360" />
  <rect class="cell room" x="216" y="396" />
  <rect class="cell rock" x="216" y="432" />
  <rect class="cell rock" x="216" y="468" />
  <rect class="cell rock" x="216" y="504" />
  <rect class="cell rock" x="216" y="540" />
  <rect class="cell rock" x="216" y="576" />
  <rect class="cell rock" x="216" y="612" />
  <rect class="cell rock" x="216" y="648" />
  <rect class="cell corridor" x="216" y="684" />
  <rect class="cell rock" x="216" y="720" />
  <rect class="cell rock" x="252" y="0" />
  <rect class="cell room" x="252" y="36" />
  <rect class="cell room" x="252" y="72" />
  <rect class="cell room" x="252" y="108" />
  <rect class="cell corridor" x="252" y="144" />
  <rect class="cell corridor" x="252" y="180" />
  <rect class="cell rock" x="252" y="216" />
  <rect class="cell rock" x="252" y="252" />
  <rect class="cell rock" x="252" y="288" />
  <rect class="cell room" x="252" y="324" />
  <rect class="cell room" x="252" y="360" />
  <rect class="cell room" x="252" y="396" />
  <rect class="cell rock" x="252" y="432" />
  <rect class="cell rock" x="252" y="468" />
  <rect class="cell rock" x="252" y="504" />
  <rect class="cell rock" x="252" y="540" />
  <rect class="cell rock" x="252" y="576" />
  <rect class="cell rock" x="252" y="612" />
  <rect class="cell rock" x="252" y="648" />
  <rect class="cell corridor" x="252" y="684" />
  <rect class="cell rock" x="252" y="720" />
  <rect class="cell rock" x="288" y="0" />
  <rect class="cell room" x="288" y="36" />
  <rect class="cell room" x="288" y="72" />
  <rect class="cell room" x="288" y="108" />
  <rect class="cell rock" x="288" y="144" />
  <rect class="cell corridor" x="288" y="180" />
  <rect class="cell rock" x="288" y="216" />
  <rect class="cell rock" x="288" y="252" />
  <rect class="cell rock" x="288" y="288" />
  <rect class="cell rock" x="288" y="324" />
  <rect class="cell rock" x="288" y="360" />
  <rect class="cell rock" x="288" y="396" />
  <rect class="cell rock" x="288" y="432" />
  <rect class="cell rock" x="288" y="468" />
  <rect class="cell rock" x="288" y="504" />
  <rect class="cell rock" x="288" y="540" />
  <rect class="cell rock" x="288" y="576" />
  <rect class="cell rock" x="288" y="612" />
  <rect class="cell rock" x="288" y="648" />
  <rect class="cell corridor" x="288" y="684" />
  <rect class="cell rock" x="288" y="720" />
  <rect class="cell rock" x="324" y="0" />
  <rect class="cell room" x="324" y="36" />
  <rect class="cell room" x="324" y="72" />
  <rect class="cell room" x="324" y="108" />
  <rect class="cell rock" x="324" y="144" />
  <rect class="cell corridor" x="324" y="180" />
  <rect class="cell corridor" x="324" y="216" />
  <rect class="cell corridor" x="324" y="252" />
  <rect class="cell corridor" x="324" y="288" />
  <rect class="cell corridor" x="324" y="324" />
  <rect class="cell corridor" x="324" y="360" />
  <rect class="cell corridor" x="324" y="396" />
  <rect class="cell corridor" x="324" y="432" />
  <rect class="cell corridor" x="324" y="468" />
  <rect class="cell corridor" x="324" y="504" />
  <rect class="cell corridor" x="324" y="540" />
  <rect class="cell corridor" x="324" y="576" />
  <rect class="cell corridor" x="324" y="612" />
  <rect class="cell rock" x="324" y="648" />
  <rect class="cell corridor" x="324" y="684" />
  <rect class="cell rock" x="324" y="720" />
  <rect class="cell rock" x="360" y="0" />
  <rect class="cell corridor" x="360" y="36" />
  <rect class="cell rock" x="360" y="72" />
  <rect class="cell rock" x="360" y="108" />
  <rect class="cell rock" x="360" y="144" />
  <rect class="cell rock" x="360" y="180" />
  <rect class="cell rock" x="360" y="216" />
  <rect class="cell rock" x="360" y="252" />
  <rect class="cell rock" x="360" y="288" />
  <rect class="cell rock" x="360" y="324" />
  <rect class="cell rock" x="360" y="360" />
  <rect class="cell rock" x="360" y="396" />
  <rect class="cell rock" x="360" y="432" />
  <rect class="cell rock" x="360" y="468" />
  <rect class="cell rock" x="360" y="504" />
  <rect class="cell rock" x="360" y="540" />
  <rect class="cell rock" x="360" y="576" />
  <rect class="cell corridor" x="360" y="612" />
  <rect class="cell rock" x="360" y="648" />
  <rect class="cell corridor" x="360" y="684" />
  <rect class="cell rock" x="360" y="720" />
  <rect class="cell rock" x="396" y="0" />
  <rect class="cell room" x="396" y="36" />
  <rect class="cell room" x="396" y="72" />
  <rect class="cell room" x="396" y="108" />
  <rect class="cell room" x="396" y="144" />
  <rect class="cell room" x="396" y="180" />
  <rect class="cell room" x="396" y="216" />
  <rect class="cell room" x="396" y="252" />
  <rect class="cell room" x="396" y="288" />
  <rect class="cell room" x="396" y="324" />
  <rect class="cell corridor" x="396" y="360" />
  <rect class="cell corridor" x="396" y="396" />
  <rect class="cell corridor" x="396" y="432" />
  <rect class="cell corridor" x="396" y="468" />
  <rect class="cell corridor" x="396" y="504" />
  <rect class="cell corridor" x="396" y="540" />
  <rect class="cell rock" x="396" y="576" />
  <rect class="cell corridor" x="396" y="612" />
  <rect class="cell rock" x="396" y="648" />
  <rect class="cell corridor" x="396" y="684" />
  <rect class="cell rock" x="396" y="720" />
  <rect class="cell rock" x="432" y="0" />
  <rect class="cell room" x="432" y="36" />
  <rect class="cell room" x="432" y="72" />
  <rect class="cell room" x="432" y="108" />
  <rect class="cell room" x="432" y="144" />
  <rect class="cell room" x="432" y="180" />
  <rect class="cell room" x="432" y="216" />
  <rect class="cell room" x="432" y="252" />
  <rect class="cell room" x="432" y="288" />
  <rect class="cell room" x="432" y="324" />
  <rect class="cell rock" x="432" y="360" />
  <rect class="cell rock" x="432" y="396" />
  <rect class="cell rock" x="432" y="432" />
  <rect class="cell rock" x="432" y="468" />
  <rect class="cell rock" x="432" y="504" />
  <rect class="cell corridor" x="432" y="540" />
  <rect class="cell rock" x="432" y="576" />
  <rect class="cell corridor" x="432" y="612" />
  <rect class="cell rock" x="432" y="648" />
  <rect class="cell corridor" x="432" y="684" />
  <rect class="cell rock" x="432" y="720" />
  <rect class="cell rock" x="468" y="0" />
  <rect class="cell room" x="468" y="36" />
  <rect class="cell room" x="468" y="72" />
  <rect class="cell room" x="468" y="108" />
  <rect class="cell room" x="468" y="144" />
  <rect class="cell room" x="468" y="180" />
  <rect class="cell room" x="468" y="216" />
  <rect class="cell room" x="468" y="252" />
  <rect class="cell room" x="468" y="288" />
  <rect class="cell room" x="468" y="324" />
  <rect class="cell rock" x="468" y="360" />
  <rect class="cell rock" x="468" y="396" />
  <rect class="cell rock" x="468" y="432" />
  <rect class="cell corridor" x="468" y="468" />
  <rect class="cell corridor" x="468" y="504" />
  <rect class="cell corridor" x="468" y="540" />
  <rect class="cell rock" x="468" y="576" />
  <rect class="cell corridor" x="468" y="612" />
  <rect class="cell rock" x="468" y="648" />
  <rect class="cell corridor" x="468" y="684" />
  <rect class="cell rock" x="468" y="720" />
  <rect class="cell rock" x="504" y="0" />
  <rect class="cell room" x="504" y="36" />
  <rect class="cell room" x="504" y="72" />
  <rect class="cell room" x="504" y="108" />
  <rect class="cell room" x="504" y="144" />
  <rect class="cell room" x="504" y="180" />
  <rect class="cell room" x="504" y="216" />
  <rect class="cell room" x="504" y="252" />
  <rect class="cell room" x="504" y="288" />
  <rect class="cell room" x="504" y="324" />
  <rect class="cell rock" x="504" y="360" />
  <rect class="cell rock" x="504" y="396" />
  <rect class="cell rock" x="504" y="432" />
  <rect class="cell corridor" x="504" y="468" />
  <rect class="cell rock" x="504" y="504" />
  <rect class="cell rock" x="504" y="540" />
  <rect class="cell rock" x="504" y="576" />
  <rect class="cell corridor" x="504" y="612" />
  <rect class="cell rock" x="504" y="648" />
  <rect class="cell corridor" x="504" y="684" />
  <rect class="cell rock" x="504" y="720" />
  <rect class="cell rock" x="540" y="0" />
  <rect class="cell room" x="540" y="36" />
  <rect class="cell room" x="540" y="72" />
  <rect class="cell room" x="540" y="108" />
  <rect class="cell room" x="540" y="144" />
  <rect class="cell room" x="540" y="180" />
  <rect class="cell room" x="540" y="216" />
  <rect class="cell room" x="540" y="252" />
  <rect class="cell room" x="540" y="288" />
  <rect class="cell room" x="540" y="324" />
  <rect class="cell rock" x="540" y="360" />
  <rect class="cell rock" x="540" y="396" />
  <rect class="cell rock" x="540" y="432" />
  <rect class="cell corridor" x="540" y="468" />
  <rect class="cell rock" x="540" y="504" />
  <rect class="cell rock" x="540" y="540" />
  <rect class="cell rock" x="540" y="576" />
  <rect class="cell corridor" x="540" y="612" />
  <rect class="cell rock" x="540" y="648" />
  <rect class="cell corridor" x="540" y="684" />
  <rect class="cell rock" x="540" y="720" />
  <rect class="cell rock" x="576" y="0" />
  <rect class="cell rock" x="576" y="36" />
  <rect class="cell corridor" x="576" y="72" />
  <rect class="cell rock" x="576" y="108" />
  <rect class="cell rock" x="576" y="144" />
  <rect class="cell rock" x="576" y="180" />
  <rect class="cell rock" x="576" y="216" />
  <rect class="cell rock" x="576" y="252" />
  <rect class="cell rock" x="576" y="288" />
  <rect class="cell rock" x="576" y="324" />
  <rect class="cell rock" x="576" y="360" />
  <rect class="cell rock" x="576" y="396" />
  <rect class="cell rock" x="576" y="432" />
  <rect class="cell corridor" x="576" y="468" />
  <rect class="cell rock" x="576" y="504" />
  <rect class="cell rock" x="576" y="540" />
  <rect class="cell rock" x="576" y="576" />
  <rect class="cell corridor" x="576" y="612" />
  <rect class="cell rock" x="576" y="648" />
  <rect class="cell corridor" x="576" y="684" />
  <rect class="cell rock" x="576" y="720" />
  <rect class="cell rock" x="612" y="0" />
  <rect class="cell rock" x="612" y="36" />
  <rect class="cell corridor" x="612" y="72" />
  <rect class="cell corridor" x="612" y="108" />
  <rect class="cell corridor" x="612" y="144" />
  <rect class="cell room" x="612" y="180" />
  <rect class="cell room" x="612" y="216" />
  <rect class="cell room" x="612" y="252" />
  <rect class="cell room" x="612" y="288" />
  <rect class="cell room" x="612" y="324" />
  <rect class="cell room" x="612" y="360" />
  <rect class="cell room" x="612" y="396" />
  <rect class="cell rock" x="612" y="432" />
  <rect class="cell corridor" x="612" y="468" />
  <rect class="cell rock" x="612" y="504" />
  <rect class="cell corridor" x="612" y="540" />
  <rect class="cell corridor" x="612" y="576" />
  <rect class="cell corridor" x="612" y="612" />
  <rect class="cell corridor" x="612" y="648" />
  <rect class="cell corridor" x="612" y="684" />
  <rect class="cell rock" x="612" y="720" />
  <rect class="cell rock" x="648" y="0" />
  <rect class="cell rock" x="648" y="36" />
  <rect class="cell rock" x="648" y="72" />
  <rect class="cell corridor" x="648" y="108" />
  <rect class="cell rock" x="648" y="144" />
  <rect class="cell room" x="648" y="180" />
  <rect class="cell room" x="648" y="216" />
  <rect class="cell room" x="648" y="252" />
  <rect class="cell room" x="648" y="288" />
  <rect class="cell room" x="648" y="324" />
  <rect class="cell room" x="648" y="360" />
  <rect class="cell room" x="648" y="396" />
  <rect class="cell rock" x="648" y="432" />
  <rect class="cell corridor" x="648" y="468" />
  <rect class="cell rock" x="648" y="504" />
  <rect class="cell corridor" x="648" y="540" />
  <rect class="cell rock" x="648" y="576" />
  <rect class="cell rock" x="648" y="612" />
  <rect class="cell rock" x="648" y="648" />
  <rect class="cell rock" x="648" y="684" />
  <rect class="cell rock" x="648" y="720" />
  <rect class="cell rock" x="684" y="0" />
  <rect class="cell rock" x="684" y="36" />
  <rect class="cell rock" x="684" y="72" />
  <rect class="cell corridor" x="684" y="108" />
  <rect class="cell rock" x="684" y="144" />
  <rect class="cell room" x="684" y="180" />
  <rect class="cell room" x="684" y="216" />
  <rect class="cell room" x="684" y="252" />
  <rect class="cell room" x="684" y="288" />
  <rect class="cell room" x="684" y="324" />
  <rect class="cell room" x="684" y="360" />
  <rect class="cell room" x="684" y="396" />
  <rect class="cell rock" x="684" y="432" />
  <rect class="cell corridor" x="684" y="468" />
  <rect class="cell rock" x="684" y="504" />
  <rect class="cell corridor" x="684" y="540" />
  <rect class="cell corridor" x="684" y="576" />
  <rect class="cell room" x="684" y="612" />
  <rect class="cell room" x="684" y="648" />
  <rect class="cell room" x="684" y="684" />
  <rect class="cell rock" x="684" y="720" />
  <rect class="cell rock" x="720" y="0" />
  <rect class="cell rock" x="720" y="36" />
  <rect class="cell rock" x="720" y="72" />
  <rect class="cell corridor" x="720" y="108" />
  <rect class="cell rock" x="720" y="144" />
  <rect class="cell room" x="720" y="180" />
  <rect class="cell room" x="720" y="216" />
  <rect class="cell room" x="720" y="252" />
  <rect class="cell room" x="720" y="288" />
  <rect class="cell room" x="720" y="324" />
  <rect class="cell room" x="720" y="360" />
  <rect class="cell room" x="720" y="396" />
  <rect class="cell rock" x="720" y="432" />
  <rect class="cell corridor" x="720" y="468" />
  <rect class="cell rock" x="720" y="504" />
  <rect class="cell corridor" x="720" y="540" />
  <rect class="cell rock" x="720" y="576" />
  <rect class="cell room" x="720" y="612" />
  <rect class="cell room" x="720" y="648" />
  <rect class="cell room" x="720" y="684" />
  <rect class="cell rock" x="720" y="720" />
  <rect class="cell rock" x="756" y="0" />
  <rect class="cell rock" x="756" y="36" />
  <rect class="cell rock" x="756" y="72" />
  <rect class="cell corridor" x="756" y="108" />
  <rect class="cell rock" x="756" y="144" />
  <rect class="cell room" x="756" y="180" />
  <rect class="cell room" x="756" y="216" />
  <rect class="cell room" x="756" y="252" />
  <rect class="cell room" x="756" y="288" />
  <rect class="cell room" x="756" y="324" />
  <rect class="cell room" x="756" y="360" />
  <rect class="cell room" x="756" y="396" />
  <rect class="cell rock" x="756" y="432" />
  <rect class="cell corridor" x="756" y="468" />
  <rect class="cell corridor" x="756" y="504" />
  <rect class="cell corridor" x="756" y="540" />
  <rect class="cell rock" x="756" y="576" />
  <rect class="cell room" x="756" y="612" />
  <rect class="cell room" x="756" y="648" />
  <rect class="cell room" x="756" y="684" />
  <rect class="cell rock" x="756" y="720" />
  <rect class="cell rock" x="792" y="0" />
  <rect class="cell rock" x="792" y="36" />
  <rect class="cell rock" x="792" y="72" />
  <rect class="cell corridor" x="792" y="108" />
  <rect class="cell rock" x="792" y="144" />
  <rect class="cell room" x="792" y="180" />
  <rect class="cell room" x="792" y="216" />
  <rect class="cell room" x="792" y="252" />
  <rect class="cell room" x="792" y="288" />
  <rect class="cell room" x="792" y="324" />
  <rect class="cell room" x="792" y="360" />
  <rect class="cell room" x="792" y="396" />
  <rect class="cell rock" x="792" y="432" />
  <rect class="cell rock" x="792" y="468" />
  <rect class="cell rock" x="792" y="504" />
  <rect class="cell rock" x="792" y="540" />
  <rect class="cell rock" x="792" y="576" />
  <rect class="cell rock" x="792" y="612" />
  <rect class="cell corridor" x="792" y="648" />
  <rect class="cell rock" x="792" y="684" />
  <rect class="cell rock" x="792" y="720" />
  <rect class="cell rock" x="828" y="0" />
  <rect class="cell rock" x="828" y="36" />
  <rect class="cell rock" x="828" y="72" />
  <rect class="cell corridor" x="828" y="108" />
  <rect class="cell rock" x="828" y="144" />
  <rect class="cell room" x="828" y="180" />
  <rect class="cell room" x="828" y="216" />
  <rect class="cell room" x="828" y="252" />
  <rect class="cell room" x="828" y="288" />
  <rect class="cell room" x="828" y="324" />
  <rect class="cell room" x="828" y="360" />
  <rect class="cell room" x="828" y="396" />
  <rect class="cell rock" x="828" y="432" />
  <rect class="cell room" x="828" y="468" />
  <rect class="cell room" x="828" y="504" />
  <rect class="cell room" x="828" y="540" />
  <rect class="cell room" x="828" y="576" />
  <rect class="cell room" x="828" y="612" />
  <rect class="cell room" x="828" y="648" />
  <rect class="cell room" x="828" y="684" />
  <rect class="cell rock" x="828" y="720" />
  <rect class="cell rock" x="864" y="0" />
  <rect class="cell rock" x="864" y="36" />
  <rect class="cell rock" x="864" y="72" />
  <rect class="cell corridor" x="864" y="108" />
  <rect class="cell rock" x="864" y="144" />
  <rect class="cell rock" x="864" y="180" />
  <rect class="cell rock" x="864" y="216" />
  <rect class="cell rock" x="864" y="252" />
  <rect class="cell rock" x="864" y="288" />
  <rect class="cell corridor" x="864" y="324" />
  <rect class="cell rock" x="864" y="360" />
  <rect class="cell rock" x="864" y="396" />
  <rect class="cell rock" x="864" y="432" />
  <rect class="cell room" x="864" y="468" />
  <rect class="cell room" x="864" y="504" />
  <rect class="cell room" x="864" y="540" />
  <rect class="cell room" x="864" y="576" />
  <rect class="cell room" x="864" y="612" />
  <rect class="cell room" x="864" y="648" />
  <rect class="cell room" x="864" y="684" />
  <rect class="cell rock" x="864" y="720" />
  <rect class="cell rock" x="900" y="0" />
  <rect class="cell rock" x="900" y="36" />
  <rect class="cell rock" x="900" y="72" />
  <rect class="cell corridor" x="900" y="108" />
  <rect class="cell corridor" x="900" y="144" />
  <rect class="cell room" x="900" y="180" />
  <rect class="cell room" x="900" y="216" />
  <rect class="cell room" x="900" y="252" />
  <rect class="cell rock" x="900" y="288" />
  <rect class="cell corridor" x="900" y="324" />
  <rect class="cell corridor" x="900" y="360" />
  <rect class="cell corridor" x="900" y="396" />
  <rect class="cell corridor" x="900" y="432" />
  <rect class="cell room" x="900" y="468" />
  <rect class="cell room" x="900" y="504" />
  <rect class="cell room" x="900" y="540" />
  <rect class="cell room" x="900" y="576" />
  <rect class="cell room" x="900" y="612" />
  <rect class="cell room" x="900" y="648" />
  <rect class="cell room" x="900" y="684" />
  <rect class="cell rock" x="900" y="720" />
  <rect class="cell rock" x="936" y="0" />
  <rect class="cell rock" x="936" y="36" />
  <rect class="cell rock" x="936" y="72" />
  <rect class="cell corridor" x="936" y="108" />
  <rect class="cell rock" x="936" y="144" />
  <rect class="cell room" x="936" y="180" />
  <rect class="cell room" x="936" y="216" />
  <rect class="cell room" x="936" y="252" />
  <rect class="cell corridor" x="936" y="288" />
  <rect class="cell corridor" x="936" y="324" />
  <rect class="cell rock" x="936" y="360" />
  <rect class="cell rock" x="936" y="396" />
  <rect class="cell rock" x="936" y="432" />
  <rect class="cell room" x="936" y="468" />
  <rect class="cell room" x="936" y="504" />
  <rect class="cell room" x="936" y="540" />
  <rect class="cell room" x="936" y="576" />
  <rect class="cell room" x="936" y="612" />
  <rect class="cell room" x="936" y="648" />
  <rect class="cell room" x="936" y="684" />
  <rect class="cell rock" x="936" y="720" />
  <rect class="cell rock" x="972" y="0" />
  <rect class="cell rock" x="972" y="36" />
  <rect class="cell rock" x="972" y="72" />
  <rect class="cell corridor" x="972" y="108" />
  <rect class="cell rock" x="972" y="144" />
  <rect class="cell room" x="972" y="180" />
  <rect class="cell room" x="972" y="216" />
  <rect class="cell room" x="972" y="252" />
  <rect class="cell rock" x="972" y="288" />
  <rect class="cell corridor" x="972" y="324" />
  <rect class="cell rock" x="972" y="360" />
  <rect class="cell rock" x="972" y="396" />
  <rect class="cell rock" x="972" y="432" />
  <rect class="cell room" x="972" y="468" />
  <rect class="cell room" x="972" y="504" />
  <rect class="cell room" x="972" y="540" />
  <rect class="cell room" x="972" y="576" />
  <rect class="cell room" x="972" y="612" />
  <rect class="cell room" x="972" y="648" />
  <rect class="cell room" x="972" y="684" />
  <rect class="cell rock" x="972" y="720" />
  <rect class="cell rock" x="1008" y="0" />
  <rect class="cell rock" x="1008" y="36" />
  <rect class="cell rock" x="1008" y="72" />
  <rect class="cell corridor" x="1008" y="108" />
  <rect class="cell rock" x="1008" y="144" />
  <rect class="cell room" x="1008" y="180" />
  <rect class="cell room" x="1008" y="216" />
  <rect class="cell room" x="1008" y="252" />
  <rect class="cell rock" x="1008" y="288" />
  <rect class="cell corridor" x="1008" y="324" />
  <rect class="cell rock" x="1008" y="360" />
  <rect class="cell rock" x="1008" y="396" />
  <rect class="cell rock" x="1008" y="432" />
  <rect class="cell rock" x="1008" y="468" />
  <rect class="cell rock" x="1008" y="504" />
  <rect class="cell rock" x="1008" y="540" />
  <rect class="cell rock" x="1008" y="576" />
  <rect class="cell rock" x="1008" y="612" />
  <rect class="cell rock" x="1008" y="648" />
  <rect class="cell rock" x="1008" y="684" />
  <rect class="cell rock" x="1008" y="720" />
  <rect class="cell rock" x="1044" y="0" />
  <rect class="cell corridor" x="1044" y="36" />
  <rect class="cell corridor" x="1044" y="72" />
  <rect class="cell corridor" x="1044" y="108" />
  <rect class="cell rock" x="1044" y="144" />
  <rect class="cell room" x="1044" y="180" />
  <rect class="cell room" x="1044" y="216" />
  <rect class="cell room" x="1044" y="252" />
  <rect class="cell rock" x="1044" y="288" />
  <rect class="cell corridor" x="1044" y="324" />
  <rect class="cell corridor" x="1044" y="360" />
  <rect class="cell corridor" x="1044" y="396" />
  <rect class="cell corridor" x="1044" y="432" />
  <rect class="cell corridor" x="1044" y="468" />
  <rect class="cell corridor" x="1044" y="504" />
  <rect class="cell corridor" x="1044" y="540" />
  <rect class="cell corridor" x="1044" y="576" />
  <rect class="cell corridor" x="1044" y="612" />
  <rect class="cell rock" x="1044" y="648" />
  <rect class="cell rock" x="1044" y="684" />
  <rect class="cell rock" x="1044" y="720" />
  <rect class="cell rock" x="1080" y="0" />
  <rect class="cell corridor" x="1080" y="36" />
  <rect class="cell rock" x="1080" y="72" />
  <rect class="cell rock" x="1080" y="108" />
  <rect class="cell rock" x="1080" y="144" />
  <rect class="cell rock" x="1080" y="180" />
  <rect class="cell rock" x="1080" y="216" />
  <rect class="cell rock" x="1080" y="252" />
  <rect class="cell rock" x="1080" y="288" />
  <rect class="cell rock" x="1080" y="324" />
  <rect class="cell rock" x="1080" y="360" />
  <rect class="cell rock" x="1080" y="396" />
  <rect class="cell rock" x="1080" y="432" />
  <rect class="cell rock" x="1080" y="468" />
  <rect class="cell rock" x="1080" y="504" />
  <rect class="cell rock" x="1080" y="540" />
  <rect class="cell rock" x="1080" y="576" />
  <rect class="cell corridor" x="1080" y="612" />
  <rect class="cell rock" x="1080" y="648" />
  <rect class="cell rock" x="1080" y="684" />
  <rect class="cell rock" x="1080" y="720" />
  <rect class="cell rock" x="1116" y="0" />
  <rect class="cell room" x="1116" y="36" />
  <rect class="cell room" x="1116" y="72" />
  <rect class="cell room" x="1116" y="108" />
  <rect class="cell room" x="1116" y="144" />
  <rect class="cell room" x="1116" y="180" />
  <rect class="cell corridor" x="1116" y="216" />
  <rect class="cell corridor" x="1116" y="252" />
  <rect class="cell corridor" x="1116" y="288" />
  <rect class="cell corridor" x="1116" y="324" />
  <rect class="cell corridor" x="1116" y="360" />
  <rect class="cell corridor" x="1116" y="396" />
  <rect class="cell corridor" x="1116" y="432" />
  <rect class="cell corridor" x="1116" y="468" />
  <rect class="cell rock" x="1116" y="504" />
  <rect class="cell rock" x="1116" y="540" />
  <rect class="cell rock" x="1116" y="576" />
  <rect class="cell corridor" x="1116" y="612" />
  <rect class="cell rock" x="1116" y="648" />
  <rect class="cell rock" x="1116" y="684" />
  <rect class="cell rock" x="1116" y="720" />
  <rect class="cell rock" x="1152" y="0" />
  <rect class="cell room" x="1152" y="36" />
  <rect class="cell room" x="1152" y="72" />
  <rect class="cell room" x="1152" y="108" />
  <rect class="cell room" x="1152" y="144" />
  <rect class="cell room" x="1152" y="180" />
  <rect class="cell rock" x="1152" y="216" />
  <rect class="cell corridor" x="1152" y="252" />
  <rect class="cell rock" x="1152" y="288" />
  <rect class="cell rock" x="1152" y="324" />
  <rect class="cell rock" x="1152" y="360" />
  <rect class="cell rock" x="1152" y="396" />
  <rect class="cell rock" x="1152" y="432" />
  <rect class="cell corridor" x="1152" y="468" />
  <rect class="cell rock" x="1152" y="504" />
  <rect class="cell rock" x="1152" y="540" />
  <rect class="cell rock" x="1152" y="576" />
  <rect class="cell corridor" x="1152" y="612" />
  <rect class="cell rock" x="1152" y="648" />
  <rect class="cell rock" x="1152" y="684" />
  <rect class="cell rock" x="1152" y="720" />
  <rect class="cell rock" x="1188" y="0" />
  <rect class="cell room" x="1188" y="36" />
  <rect class="cell room" x="1188" y="72" />
  <rect class="cell room" x="1188" y="108" />
  <rect class="cell room" x="1188" y="144" />
  <rect class="cell room" x="1188" y="180" />
  <rect class="cell rock" x="1188" y="216" />
  <rect class="cell corridor" x="1188" y="252" />
  <rect class="cell rock" x="1188" y="288" />
  <rect class="cell rock" x="1188" y="324" />
  <rect class="cell rock" x="1188" y="360" />
  <rect class="cell rock" x="1188" y="396" />
  <rect class="cell rock" x="1188" y="432" />
  <rect class="cell corridor" x="1188" y="468" />
  <rect class="cell corridor" x="1188" y="504" />
  <rect class="cell corridor" x="1188" y="540" />
  <rect class="cell corridor" x="1188" y="576" />
  <rect class="cell corridor" x="1188" y="612" />
  <rect class="cell rock" x="1188" y="648" />
  <rect class="cell rock" x="1188" y="684" />
  <rect class="cell rock" x="1188" y="720" />
  <rect class="cell rock" x="1224" y="0" />
  <rect class="cell rock" x="1224" y="36" />
  <rect class="cell rock" x="1224" y="72" />
  <rect class="cell rock" x="1224" y="108" />
  <rect class="cell rock" x="1224" y="144" />
  <rect class="cell rock" x="1224" y="180" />
  <rect class="cell rock" x="1224" y="216" />
  <rect class="cell corridor" x="1224" y="252" />
  <rect class="cell rock" x="1224" y="288" />
  <rect class="cell rock" x="1224" y="324" />
  <rect class="cell rock" x="1224" y="360" />
  <rect class="cell rock" x="1224" y="396" />
  <rect class="cell rock" x="1224" y="432" />
  <rect class="cell rock" x="1224" y="468" />
  <rect class="cell rock" x="1224" y="504" />
  <rect class="cell rock" x="1224" y="540" />
  <rect class="cell rock" x="1224" y="576" />
  <rect class="cell rock" x="1224" y="612" />
  <rect class="cell rock" x="1224" y="648" />
  <rect class="cell rock" x="1224" y="684" />
  <rect class="cell rock" x="1224" y="720" />
  <rect class="cell rock" x="1260" y="0" />
  <rect class="cell rock" x="1260" y="36" />
  <rect class="cell rock" x="1260" y="72" />
  <rect class="cell rock" x="1260" y="108" />
  <rect class="cell rock" x="1260" y="144" />
  <rect class="cell rock" x="1260" y="180" />
  <rect class="cell rock" x="1260" y="216" />
  <rect class="cell corridor" x="1260" y="252" />
  <rect class="cell rock" x="1260" y="288" />
  <rect class="cell room" x="1260" y="324" />
  <rect class="cell room" x="1260" y="360" />
  <rect class="cell room" x="1260" y="396" />
  <rect class="cell room" x="1260" y="432" />
  <rect class="cell room" x="1260" y="468" />
  <rect class="cell rock" x="1260" y="504" />
  <rect class="cell rock" x="1260" y="540" />
  <rect class="cell rock" x="1260" y="576" />
  <rect class="cell rock" x="1260" y="612" />
  <rect class="cell rock" x="1260" y="648" />
  <rect class="cell rock" x="1260" y="684" />
  <rect class="cell rock" x="1260" y="720" />
  <rect class="cell rock" x="1296" y="0" />
  <rect class="cell rock" x="1296" y="36" />
  <rect class="cell rock" x="1296" y="72" />
  <rect class="cell rock" x="1296" y="108" />
  <rect class="cell rock" x="1296" y="144" />
  <rect class="cell rock" x="1296" y="180" />
  <rect class="cell rock" x="1296" y="216" />
  <rect class="cell corridor" x="1296" y="252" />
  <rect class="cell rock" x="1296" y="288" />
  <rect class="cell room" x="1296" y="324" />
  <rect class="cell room" x="1296" y="360" />
  <rect class="cell room" x="1296" y="396" />
  <rect class="cell room" x="1296" y="432" />
  <rect class="cell room" x="1296" y="468" />
  <rect class="cell rock" x="1296" y="504" />
  <rect class="cell rock" x="1296" y="540" />
  <rect class="cell rock" x="1296" y="576" />
  <rect class="cell rock" x="1296" y="612" />
  <rect class="cell rock" x="1296" y="648" />
  <rect class="cell rock" x="1296" y="684" />
  <rect class="cell rock" x="1296" y="720" />
  <rect class="cell rock" x="1332" y="0" />
  <rect class="cell rock" x="1332" y="36" />
  <rect class="cell rock" x="1332" y="72" />
  <rect class="cell rock" x="1332" y="108" />
  <rect class="cell rock" x="1332" y="144" />
  <rect class="cell rock" x="1332" y="180" />
  <rect class="cell rock" x="1332" y="216" />
  <rect class="cell corridor" x="1332" y="252" />
  <rect class="cell corridor" x="1332" y="288" />
  <rect class="cell room" x="1332" y="324" />
  <rect class="cell room" x="1332" y="360" />
  <rect class="cell room" x="1332" y="396" />
  <rect class="cell room" x="1332" y="432" />
  <rect class="cell room" x="1332" y="468" />
  <rect class="cell rock" x="1332" y="504" />
  <rect class="cell rock" x="1332" y="540" />
  <rect class="cell rock" x="1332" y="576" />
  <rect class="cell rock" x="1332" y="612" />
  <rect class="cell rock" x="1332" y="648" />
  <rect class="cell rock" x="1332" y="684" />
  <rect class="cell rock" x="1332" y="720" />
  <rect class="cell rock" x="1368" y="0" />
  <rect class="cell rock" x="1368" y="36" />
  <rect class="cell rock" x="1368" y="72" />
  <rect class="cell rock" x="1368" y="108" />
  <rect class="cell rock" x="1368" y="144" />
  <rect class="cell rock" x="1368" y="180" />
  <rect class="cell rock" x="1368" y="216" />
  <rect class="cell rock" x="1368" y="252" />
  <rect class="cell rock" x="1368" y="288" />
  <rect class="cell room" x="1368" y="324" />
  <rect class="cell room" x="1368" y="360" />
  <rect class="cell room" x="1368" y="396" />
  <rect class="cell room" x="1368" y="432" />
  <rect class="cell room" x="1368" y="468" />
  <rect class="cell rock" x="1368" y="504" />
  <rect class="cell rock" x="1368" y="540" />
  <rect class="cell rock" x="1368" y="576" />
  <rect class="cell rock" x="1368" y="612" />
  <rect class="cell rock" x="1368" y="648" />
  <rect class="cell rock" x="1368" y="684" />
  <rect class="cell rock" x="1368" y="720" />
  <rect class="cell rock" x="1404" y="0" />
  <rect class="cell rock" x="1404" y="36" />
  <rect class="cell rock" x="1404" y="72" />
  <rect class="cell rock" x="1404" y="108" />
  <rect class="cell rock" x="1404" y="144" />
  <rect class="cell rock" x="1404" y="180" />
  <rect class="cell rock" x="1404" y="216" />
  <rect class="cell rock" x="1404" y="252" />
  <rect class="cell rock" x="1404" y="288" />
  <rect class="cell room" x="1404" y="324" />
  <rect class="cell room" x="1404" y="360" />
  <rect class="cell room" x="1404" y="396" />
  <rect class="cell room" x="1404" y="432" />
  <rect class="cell room" x="1404" y="468" />
  <rect class="cell rock" x="1404" y="504" />
  <rect class="cell rock" x="1404" y="540" />
  <rect class="cell rock" x="1404" y="576" />
  <rect class="cell rock" x="1404" y="612" />
  <rect class="cell rock" x="1404" y="648" />
  <rect class="cell rock" x="1404" y="684" />
  <rect class="cell rock" x="1404" y="720" />
  <rect class="cell rock" x="1440" y="0" />
  <rect class="cell rock" x="1440" y="36" />
  <rect class="cell rock" x="1440" y="72" />
  <rect class="cell rock" x="1440" y="108" />
  <rect class="cell rock" x="1440" y="144" />
  <rect class="cell rock" x="1440" y="180" />
  <rect class="cell rock" x="1440" y="216" />
  <rect class="cell rock" x="1440" y="252" />
  <rect class="cell rock" x="1440" y="288" />
  <rect class="cell rock" x="1440" y="324" />
  <rect class="cell rock" x="1440" y="360" />
  <rect class="cell rock" x="1440" y="396" />
  <rect class="cell rock" x="1440" y="432" />
  <rect class="cell rock" x="1440" y="468" />
  <rect class="cell rock" x="1440" y="504" />
  <rect class="cell rock" x="1440" y="540" />
  <rect class="cell rock" x="1440" y="576" />
  <rect class="cell rock" x="1440" y="612" />
  <rect class="cell rock" x="1440" y="648" />
  <rect class="cell rock" x="1440" y="684" />
  <rect class="cell rock" x="1440" y="720" />
  <text x="187" y="343.25">2</text>
  <text x="619" y="199.25">6</text>
  <text x="403" y="55.25">4</text>
  <text x="43" y="199.25">1</text>
  <text x="835" y="487.25">7</text>
  <text x="259" y="55.25">3</text>
  <text x="1267" y="343.25">10</text>
  <text x="1123" y="55.25">9</text>
  <text x="691" y="631.25">5</text>
  <text x="907" y="199.25">8</text>
</svg>
